<svg width="16" height="16" viewBox="0 0 16 16" xmlns="http://www.w3.org/2000/svg">
    <g fill="#72BFCA" fill-rule="nonzero">
        <path d="M12.613 7.998c0 .248-.018.498-.05.743l.032-.237a5.58 5.58 0 0 1-.378 1.39l.089-.213c-.187.441-.43.856-.722 1.236l.14-.18c-.288.37-.62.7-.99.99l.18-.139c-.38.293-.794.535-1.236.722l.212-.089a5.593 5.593 0 0 1-1.389.378l.237-.032a5.64 5.64 0 0 1-1.487 0l.237.032a5.576 5.576 0 0 1-1.39-.378l.213.09a5.611 5.611 0 0 1-1.235-.723l.18.14a5.68 5.68 0 0 1-.99-.99l.138.179a5.58 5.58 0 0 1-.721-1.236l.089.213a5.597 5.597 0 0 1-.378-1.39l.032.237a5.644 5.644 0 0 1 0-1.487l-.032.237a5.58 5.58 0 0 1 .378-1.39l-.09.212c.188-.44.43-.856.722-1.235l-.139.18c.288-.37.62-.7.99-.99l-.18.139c.38-.293.794-.536 1.236-.722l-.213.089a5.593 5.593 0 0 1 1.39-.378l-.237.032a5.64 5.64 0 0 1 1.487 0L8.5 3.396c.478.065.945.192 1.39.378l-.213-.09c.44.187.856.43 1.235.723l-.18-.14c.37.288.7.62.99.99l-.139-.18c.293.38.535.794.722 1.236l-.09-.212c.186.446.313.912.379 1.39l-.032-.237c.034.246.05.496.05.744 0 .228.1.47.26.631a.901.901 0 0 0 .631.26c.23-.01.47-.085.631-.26a.916.916 0 0 0 .26-.631c-.003-1.29-.393-2.599-1.146-3.651a7.008 7.008 0 0 0-.661-.808 6.992 6.992 0 0 0-.79-.683 6.279 6.279 0 0 0-1.662-.888 6.262 6.262 0 0 0-1.924-.364 6.333 6.333 0 0 0-1.953.236c-1.211.342-2.345 1.06-3.145 2.033a7.17 7.17 0 0 0-.612.85 6.941 6.941 0 0 0-.46.95 6.248 6.248 0 0 0-.424 1.89 6.358 6.358 0 0 0 .897 3.734c.65 1.072 1.626 1.978 2.773 2.496.325.146.655.278.997.374.351.099.71.154 1.07.196a6.318 6.318 0 0 0 1.986-.105 6.353 6.353 0 0 0 3.265-1.816c.878-.914 1.505-2.106 1.698-3.366.055-.358.094-.714.096-1.077 0-.228-.1-.47-.26-.631a.901.901 0 0 0-.631-.26c-.23.01-.47.085-.632.26a.917.917 0 0 0-.264.63z"/>
        <path d="M8.8 3.278V1.522c0-.185-.09-.38-.234-.51A.856.856 0 0 0 8 .8c-.206.01-.421.07-.566.211a.713.713 0 0 0-.234.511v1.756c0 .184.09.38.234.51.138.126.366.22.566.211.206-.008.421-.069.566-.21a.725.725 0 0 0 .234-.511zM8.8 14.478v-1.756c0-.185-.09-.38-.234-.51A.856.856 0 0 0 8 12c-.206.01-.421.07-.566.211a.713.713 0 0 0-.234.511v1.756c0 .184.09.38.234.51.138.126.366.22.566.211.206-.008.421-.069.566-.21a.723.723 0 0 0 .234-.511zM3.278 7.2H1.522c-.184 0-.38.09-.51.234A.856.856 0 0 0 .8 8c.008.206.069.421.21.566a.713.713 0 0 0 .511.234h1.756c.184 0 .38-.09.51-.234A.856.856 0 0 0 4 8c-.008-.206-.069-.421-.21-.566a.722.722 0 0 0-.511-.234zM14.478 7.2h-1.756c-.184 0-.38.09-.51.234A.856.856 0 0 0 12 8c.008.206.069.421.21.566a.713.713 0 0 0 .511.234h1.756c.184 0 .38-.09.51-.234A.856.856 0 0 0 15.2 8c-.008-.206-.069-.421-.21-.566a.72.72 0 0 0-.511-.234zM8.719 8.002c0 .07-.006.14-.014.21l.03-.223a1.585 1.585 0 0 1-.106.391l.084-.2c-.052.122-.12.237-.198.344l.131-.17c-.085.112-.183.21-.294.295l.17-.131c-.107.08-.223.146-.345.198l.2-.084a1.59 1.59 0 0 1-.39.107l.222-.03c-.14.018-.279.018-.42 0l.223.03a1.583 1.583 0 0 1-.39-.107c.066.029.134.058.2.084a1.752 1.752 0 0 1-.345-.198l.17.131a1.607 1.607 0 0 1-.294-.294l.13.17a1.624 1.624 0 0 1-.198-.345l.084.2a1.593 1.593 0 0 1-.106-.391l.03.223a1.571 1.571 0 0 1 0-.42l-.03.223c.019-.134.054-.266.106-.391l-.084.2c.053-.122.12-.237.199-.344l-.131.17c.085-.112.182-.21.294-.295l-.17.13c.107-.08.222-.145.345-.197l-.2.084a1.59 1.59 0 0 1 .39-.107l-.223.03c.14-.018.28-.018.42 0l-.223-.03c.135.02.266.054.391.107-.067-.029-.134-.058-.2-.084.122.052.237.12.344.198l-.17-.131c.112.085.209.183.295.294l-.131-.17c.08.107.146.223.198.345l-.084-.2c.053.126.088.257.106.391l-.03-.223c.008.07.014.14.014.21.001.217.092.44.245.595a.849.849 0 0 0 .595.246c.216-.01.442-.08.594-.246a.868.868 0 0 0 .246-.595c-.004-.464-.135-.956-.409-1.334a3.12 3.12 0 0 0-.272-.34 2.96 2.96 0 0 0-.35-.293 2.32 2.32 0 0 0-.606-.307 2.35 2.35 0 0 0-1.419-.035c-.433.124-.865.381-1.15.734-.09.109-.178.22-.252.341a2.69 2.69 0 0 0-.19.41c-.09.225-.128.465-.146.707-.033.457.096.95.33 1.341.23.385.587.736.999.923.133.06.269.12.41.161.153.044.312.062.469.08.236.026.477-.002.71-.048.244-.047.488-.149.701-.275.208-.125.413-.286.57-.474.1-.123.203-.25.282-.387.077-.133.136-.28.19-.422.094-.246.13-.523.134-.786a.866.866 0 0 0-.245-.595.849.849 0 0 0-.595-.245c-.458.024-.838.374-.841.844z"/>
    </g>
</svg>
