<svg width="32" height="25" viewBox="0 0 24 25" xmlns="http://www.w3.org/2000/svg">
    <g transform="translate(2.4 3.338)" fill="none" fill-rule="evenodd">
        <path d="M15 0c2.323 0 4.2 1.799 4.2 4.003 0 1.472-.608 2.849-1.352 3.967-1.08 1.621-2.43 2.685-2.43 2.685a.675.675 0 0 1-.835 0s-1.352-1.064-2.43-2.685C11.407 6.852 10.8 5.474 10.8 4.003 10.8 1.799 12.676 0 15 0z" fill="#177991" fill-rule="nonzero"/>
        <path d="M15 1.296c-1.581 0-2.875 1.207-2.875 2.707 0 1.21.525 2.338 1.139 3.26A11.682 11.682 0 0 0 15 9.284a11.682 11.682 0 0 0 1.735-2.02c.614-.922 1.139-2.05 1.139-3.261 0-1.5-1.293-2.707-2.874-2.707z" fill="#177991" fill-rule="nonzero"/>
        <path d="m1.34 17.586 4.493-2.05c.401-.184.863-.19 1.27-.018l5.52 2.34a.233.233 0 0 0 .183-.002l4.925-2.248a.221.221 0 0 0 .13-.2V9.791c0-.365.3-.662.67-.662.37 0 .669.297.669.662v5.615c0 .604-.354 1.15-.908 1.403l-4.925 2.248c-.402.183-.864.19-1.27.017l-5.521-2.34a.226.226 0 0 0-.182.003l-4.81 2.195c-.346.157-.75.13-1.07-.072a1.1 1.1 0 0 1-.514-.93V8.593c0-.603.354-1.15.908-1.403l4.925-2.247c.402-.183.864-.19 1.27-.017l3.207 1.359a.66.66 0 0 1 .352.87.673.673 0 0 1-.88.347L6.576 6.142a.226.226 0 0 0-.182.003L1.468 8.392a.222.222 0 0 0-.13.2v8.994h.001z" fill="#177991" fill-rule="nonzero"/>
        <path d="M6 5.492c0-.382.268-.692.6-.692.332 0 .6.31.6.692v10.616c0 .382-.268.692-.6.692-.332 0-.6-.31-.6-.692V5.492zM12 11.463c0-.366.268-.663.6-.663.332 0 .6.297.6.663v7.074c0 .366-.268.663-.6.663-.332 0-.6-.297-.6-.663v-7.074z" fill="#177991" fill-rule="nonzero"/>
        <circle fill="#FFF" cx="15" cy="4.2" r="1.8"/>
    </g>
</svg>
