<svg width="12" height="12" viewBox="0 0 12 12" xmlns="http://www.w3.org/2000/svg">
    <g fill="#177991" fill-rule="nonzero">
        <path d="m1.834 7.5 1.147-.483s-1.058-2.126 1.152-3.77c0 0 1.381-.938 2.896-.298L7.5 1.803s-2.3-.957-4.231.533c0 0-2.692 1.766-1.435 5.164z"/>
        <path d="M7.737 0 6 4.5l3-1.333zM10.166 4.5l-1.146.482s1.056 2.127-1.154 3.77c0 0-1.382.94-2.895.299L4.5 10.196s2.298.96 4.23-.53c0 0 2.692-1.766 1.436-5.166z"/>
        <path d="M4.262 12 6 7.5 3 8.832z"/>
    </g>
</svg>
