<svg width="13" height="13" viewBox="0 0 13 13" xmlns="http://www.w3.org/2000/svg">
    <path d="M10.32 11.267H2.68c-.77 0-1.35-.277-1.634-.778-.284-.502-.23-1.152.155-1.83l3.82-6.74C5.406 1.24 5.931.867 6.5.867c.57 0 1.094.373 1.479 1.052l3.82 6.74c.384.678.44 1.328.155 1.83-.285.501-.865.778-1.634.778zM7.28 8.895a.726.726 0 0 0-.72-.733.726.726 0 0 0-.718.733c0 .404.322.732.719.732a.725.725 0 0 0 .719-.732zm.02-4.408a.745.745 0 0 0-.74-.752.745.745 0 0 0-.738.752l.175 2.67h.002a.569.569 0 0 0 .562.526.57.57 0 0 0 .555-.46c.004-.022.004-.044.006-.067h.005l.172-2.67z" fill="#FFBF00" fill-rule="nonzero"/>
</svg>
